<svg width="48" height="48" xmlns="http://www.w3.org/2000/svg">

 <g>
  <title>background</title>
  <rect fill="none" id="canvas_background" height="4.352941" width="4.352941" y="-1" x="-1"/>
 </g>
 <g>
  <title>Layer 1</title>
  <path fill="#00ee00" id="svg_1" d="m22.480392,44.902941q-4.4,0 -8.3,-1.6q-3.9,-1.6 -6.725,-4.425q-2.825,-2.825 -4.425,-6.725q-1.6,-3.9 -1.6,-8.35q0,-4.4 1.6,-8.25q1.6,-3.85 4.425,-6.7q2.825,-2.85 6.725,-4.475q3.9,-1.625 8.3,-1.625q3.7,0 6.95,1.1t5.9,3.15l-3.35,3.35q-1.95,-1.35 -4.35,-2.175q-2.4,-0.825 -5.15,-0.825q-7.05,0 -11.775,4.7q-4.725,4.7 -4.725,11.8q0,7.05 4.725,11.775q4.725,4.725 11.775,4.725q1.75,0 3.25,-0.3t2.95,-0.9l3.5,3.55q-2.2,1.05 -4.65,1.625t-5.05,0.575zm13.75,-4.8l0,-6l-6,0l0,-4.55l6,0l0,-6l4.55,0l0,6l6,0l0,4.55l-6,0l0,6l-4.55,0zm-16.8,-6.5l-8.7,-8.75l3.15,-3.2l5.55,5.55l20.95,-21l3.25,3.2l-24.2,24.2z"/>
 </g>
</svg>