<svg width="48" height="48" xmlns="http://www.w3.org/2000/svg">
 <g>
  <title>background</title>
  <rect x="-1" y="-1" width="4.352939" height="4.352939" id="canvas_background" fill="none"/>
 </g>

 <g>
  <title>Layer 1</title>
  <path d="m12.960917,35.540196q-1.208588,0 -2.051419,-0.838826q-0.842831,-0.838826 -0.842831,-2.041671l0,-15.700293q0,-1.171191 0.842831,-2.041671t2.051419,-0.87048l4.230058,0l2.639811,-3.07042l8.205677,0l0,4.843034l4.007423,0l0,4.39988l4.866157,0l0,12.43995q0,1.202845 -0.874636,2.041671q-0.874636,0.838826 -2.051419,0.838826l-21.023071,0zm10.527438,-5.317841q2.289956,0 3.848399,-1.551037q1.558442,-1.551037 1.558442,-3.830112q0,-2.310729 -1.558442,-3.830112t-3.848399,-1.519383q-2.321761,0 -3.848399,1.53521t-1.526638,3.814285q0,2.279075 1.54254,3.830112q1.54254,1.551037 3.832496,1.551037zm0,-1.804268q-1.558442,0 -2.560298,-1.012922q-1.001856,-1.012922 -1.001856,-2.563959q0,-1.551037 1.001856,-2.548132q1.001856,-0.997095 2.560298,-0.997095q1.526638,0 2.560298,0.997095q1.033661,0.997095 1.033661,2.548132t-1.033661,2.563959q-1.033661,1.012922 -2.560298,1.012922zm10.432023,-11.553643l0,-2.943805l-2.926055,0l0,-2.310729l2.95786,0l0,-2.880497l2.289956,0l0,2.912151l2.95786,0l0,2.310729l-2.989665,0l0,2.912151l-2.289956,0z" id="svg_1" fill="#93930b"/>
 </g>
</svg>