<?xml version="1.0" encoding="UTF-8"?>
<svg xmlns="http://www.w3.org/2000/svg" xmlns:xlink="http://www.w3.org/1999/xlink" width="24px" height="24px" viewBox="0 0 24 24" version="1.1">
<g id="surface1">
<path style=" stroke:none;fill-rule:nonzero;fill:rgb(0%,0%,0%);fill-opacity:1;" d="M 15.425781 16.898438 L 16.925781 15.449219 L 13.050781 11.550781 L 13.050781 6.773438 L 11.074219 6.773438 L 11.074219 12.375 Z M 12 22.523438 C 10.566406 22.523438 9.203125 22.25 7.914062 21.699219 C 6.621094 21.148438 5.5 20.398438 4.550781 19.449219 C 3.601562 18.5 2.851562 17.378906 2.300781 16.085938 C 1.75 14.796875 1.476562 13.433594 1.476562 12 C 1.476562 10.566406 1.75 9.207031 2.300781 7.925781 C 2.851562 6.640625 3.601562 5.523438 4.550781 4.574219 C 5.5 3.625 6.621094 2.867188 7.914062 2.300781 C 9.203125 1.734375 10.566406 1.449219 12 1.449219 C 13.449219 1.449219 14.8125 1.734375 16.085938 2.300781 C 17.363281 2.867188 18.476562 3.625 19.425781 4.574219 C 20.375 5.523438 21.132812 6.636719 21.699219 7.914062 C 22.265625 9.1875 22.550781 10.550781 22.550781 12 C 22.550781 13.433594 22.265625 14.796875 21.699219 16.085938 C 21.132812 17.378906 20.375 18.5 19.425781 19.449219 C 18.476562 20.398438 17.363281 21.148438 16.085938 21.699219 C 14.8125 22.25 13.449219 22.523438 12 22.523438 Z M 12 22.523438 "/>
</g>
</svg>
