<svg width="48" height="48" xmlns="http://www.w3.org/2000/svg">

 <g>
  <title>background</title>
  <rect fill="none" id="canvas_background" height="4.352941" width="4.352941" y="-1" x="-1"/>
 </g>
 <g>
  <title>Layer 1</title>
  <path fill="#00b45f" id="svg_1" d="m22.05,35.15l3.85,0l0,-5.4l5.55,0l0,-3.9l-5.55,0l0,-5.3l-3.85,0l0,5.3l-5.5,0l0,3.9l5.5,0l0,5.4zm-9.05,9.25q-1.85,0 -3.2,-1.35t-1.35,-3.25l0,-23.9q0,-1.85 1.35,-3.2t3.2,-1.35l22,0q1.85,0 3.225,1.35t1.375,3.2l0,23.9q0,1.9 -1.375,3.25t-3.225,1.35l-22,0zm-2.05,-36.2l0,-4.6l26.2,0l0,4.6l-26.2,0z"/>
 </g>
</svg>