<svg width="48" height="48" xmlns="http://www.w3.org/2000/svg">

 <g>
  <title>background</title>
  <rect fill="none" id="canvas_background" height="22" width="22" y="-1" x="-1"/>
 </g>
 <g>
  <title>Layer 1</title>
  <path fill="#93930b" id="svg_1" d="m22.4,34.2l3.45,0l0,-8.3l8.35,0l0,-3.45l-8.35,0l0,-8.65l-3.45,0l0,8.65l-8.6,0l0,3.45l8.6,0l0,8.3zm1.6,10.85q-4.35,0 -8.2,-1.625q-3.85,-1.625 -6.725,-4.5q-2.875,-2.875 -4.5,-6.725q-1.625,-3.85 -1.625,-8.2q0,-4.4 1.625,-8.225q1.625,-3.825 4.5,-6.7t6.725,-4.525q3.85,-1.65 8.2,-1.65t8.225,1.65q3.875,1.65 6.725,4.525q2.85,2.875 4.5,6.725q1.65,3.85 1.65,8.2q0,4.4 -1.65,8.225q-1.65,3.825 -4.525,6.675q-2.875,2.85 -6.725,4.5q-3.85,1.65 -8.2,1.65z"/>
 </g>
</svg>