<?xml version="1.0" encoding="UTF-8"?>
<svg xmlns="http://www.w3.org/2000/svg" xmlns:xlink="http://www.w3.org/1999/xlink" width="36px" height="36px" viewBox="0 0 36 36" version="1.1">
<g id="surface1">
<path style=" stroke:none;fill-rule:nonzero;fill:rgb(100%,24.705882%,97.647059%);fill-opacity:1;" d="M 0.847656 34.617188 L 8.980469 11.855469 L 23.722656 26.4375 Z M 20.871094 19.617188 L 19.183594 17.929688 L 27.699219 9.417969 C 28.597656 8.511719 29.753906 8.058594 31.167969 8.042969 C 32.578125 8.035156 33.746094 8.480469 34.667969 9.375 L 35.308594 10.011719 L 33.585938 11.699219 L 32.871094 10.992188 C 32.394531 10.519531 31.839844 10.269531 31.199219 10.261719 C 30.566406 10.246094 30.011719 10.488281 29.535156 10.992188 Z M 14.042969 12.980469 L 12.355469 11.25 L 13.292969 10.277344 C 13.898438 9.703125 14.179688 9.050781 14.136719 8.324219 C 14.105469 7.597656 13.824219 6.980469 13.292969 6.449219 L 12.246094 5.402344 L 13.972656 3.714844 L 14.949219 4.6875 C 15.917969 5.691406 16.402344 6.925781 16.386719 8.402344 C 16.378906 9.878906 15.886719 11.113281 14.910156 12.117188 Z M 17.535156 16.277344 L 15.808594 14.589844 L 21.167969 9.230469 C 21.644531 8.753906 21.878906 8.144531 21.867188 7.40625 C 21.855469 6.675781 21.609375 6.066406 21.136719 5.589844 L 18.847656 3.304688 L 20.574219 1.574219 L 22.933594 3.9375 C 23.808594 4.863281 24.257812 6.023438 24.285156 7.40625 C 24.308594 8.792969 23.871094 9.9375 22.972656 10.839844 Z M 24.324219 23.105469 L 22.597656 21.375 L 24.210938 19.804688 C 25.207031 18.800781 26.402344 18.285156 27.792969 18.261719 C 29.179688 18.238281 30.371094 18.726562 31.371094 19.730469 L 33.285156 21.636719 L 31.558594 23.367188 L 29.605469 21.417969 C 29.035156 20.839844 28.433594 20.554688 27.808594 20.554688 C 27.183594 20.554688 26.582031 20.839844 26.011719 21.417969 Z M 24.324219 23.105469 "/>
</g>
</svg>
