<svg width="36" height="36" xmlns="http://www.w3.org/2000/svg">

 <g>
  <title>background</title>
  <rect fill="none" id="canvas_background" height="4.352939" width="4.352939" y="-1" x="-1"/>
 </g>
 <g>
  <title>Layer 1</title>
  <path id="svg_1" fill-rule="nonzero" fill="#ff3939" d="m19.612779,34.689586l0,-8.920749l-3.255406,-2.997707l-1.446847,6.509633l-10.384143,-2.155911l0.542568,-2.856773l7.196557,1.462668l2.426483,-12.394584l-2.893694,1.424577l0,5.050775l-3.036872,0l0,-7.130505l6.473134,-2.597759c0.795013,-0.342812 1.363955,-0.567545 1.718131,-0.678007c0.34664,-0.106653 0.704585,-0.163789 1.066296,-0.163789c0.553871,0 1.051225,0.133316 1.480757,0.399948c0.437068,0.266633 0.79878,0.6323 1.085135,1.097001l1.593793,2.453016c0.606621,0.975112 1.44308,1.80929 2.513144,2.506342c1.077599,0.693243 2.358662,1.039865 3.850723,1.039865l0,3.073888c-1.661613,0 -3.131068,-0.342813 -4.408362,-1.028439c-1.281063,-0.678007 -2.475465,-1.714063 -3.583208,-3.108169l-1.194402,4.829851l3.217727,2.997707l0,11.187122l-2.961515,0zm0.648067,-26.9108c-0.866602,0 -1.59756,-0.300914 -2.185342,-0.914167c-0.595318,-0.613254 -0.889208,-1.344587 -0.889208,-2.194002c0,-0.879886 0.29389,-1.618838 0.889208,-2.213046c0.587782,-0.598018 1.31874,-0.895122 2.185342,-0.895122c0.843994,0 1.559882,0.297105 2.155199,0.895122c0.587782,0.594209 0.881672,1.33316 0.881672,2.213046c0,0.849414 -0.29389,1.580748 -0.881672,2.194002c-0.595318,0.613254 -1.311205,0.914167 -2.155199,0.914167zm0,0"/>
 </g>
</svg>