<?xml version="1.0" encoding="UTF-8"?>
<svg xmlns="http://www.w3.org/2000/svg" xmlns:xlink="http://www.w3.org/1999/xlink" width="36px" height="36px" viewBox="0 0 36 36" version="1.1">
<g id="surface1">
<path style=" stroke:none;fill-rule:nonzero;fill:rgb(0%,70.588235%,37.254902%);fill-opacity:1;" d="M 16.535156 26.363281 L 19.425781 26.363281 L 19.425781 22.3125 L 23.589844 22.3125 L 23.589844 19.386719 L 19.425781 19.386719 L 19.425781 15.410156 L 16.535156 15.410156 L 16.535156 19.386719 L 12.410156 19.386719 L 12.410156 22.3125 L 16.535156 22.3125 Z M 9.75 33.300781 C 8.824219 33.300781 8.027344 32.964844 7.347656 32.285156 C 6.675781 31.613281 6.339844 30.800781 6.339844 29.847656 L 6.339844 11.925781 C 6.339844 10.996094 6.675781 10.199219 7.347656 9.527344 C 8.027344 8.847656 8.824219 8.511719 9.75 8.511719 L 26.25 8.511719 C 27.175781 8.511719 27.980469 8.847656 28.667969 9.527344 C 29.355469 10.199219 29.699219 10.996094 29.699219 11.925781 L 29.699219 29.847656 C 29.699219 30.800781 29.355469 31.613281 28.667969 32.285156 C 27.980469 32.964844 27.175781 33.300781 26.25 33.300781 Z M 8.214844 6.152344 L 8.214844 2.699219 L 27.863281 2.699219 L 27.863281 6.152344 Z M 8.214844 6.152344 "/>
</g>
</svg>
