<svg width="48" height="48" xmlns="http://www.w3.org/2000/svg">

 <g>
  <title>background</title>
  <rect fill="none" id="canvas_background" height="4.352939" width="4.352939" y="-1" x="-1"/>
 </g>
 <g>
  <title>Layer 1</title>
  <path id="svg_1" d="m12.711642,33.905025q2.690625,-1.691176 5.317188,-2.557904q2.626563,-0.866728 5.701563,-0.866728q3.075,0 5.722917,0.866728t5.338542,2.557904q1.879167,-2.283088 2.669271,-4.608456q0.790104,-2.325368 0.790104,-4.904412q0,-6.130515 -4.164063,-10.252757t-10.356771,-4.122243q-6.192708,0 -10.356771,4.122243t-4.164063,10.252757q0,2.579044 0.811458,4.904412t2.690625,4.608456zm11.01875,-8.244485q-2.477083,0 -4.164063,-1.670037t-1.686979,-4.122243q0,-2.452206 1.686979,-4.122243t4.164063,-1.670037q2.477083,0 4.164063,1.670037t1.686979,4.122243q0,2.452206 -1.686979,4.122243t-4.164063,1.670037zm0,15.643382q-3.5875,0 -6.705208,-1.331801q-3.117708,-1.331801 -5.423958,-3.636029q-2.30625,-2.304228 -3.630208,-5.390625q-1.323958,-3.086397 -1.323958,-6.595588q0,-3.466912 1.345313,-6.553309q1.345313,-3.086397 3.672917,-5.369485q2.327604,-2.283088 5.445313,-3.61489q3.117708,-1.331801 6.6625,-1.331801q3.502083,0 6.619792,1.331801q3.117708,1.331801 5.423958,3.61489q2.30625,2.283088 3.651563,5.369485q1.345313,3.086397 1.345313,6.595588q0,3.466912 -1.345313,6.553309q-1.345313,3.086397 -3.651563,5.390625t-5.423958,3.636029q-3.117708,1.331801 -6.6625,1.331801z"/>
 </g>
</svg>