<svg width="48" height="48" xmlns="http://www.w3.org/2000/svg">

 <g>
  <title>background</title>
  <rect fill="none" id="canvas_background" height="4.352941" width="4.352941" y="-1" x="-1"/>
 </g>
 <g>
  <title>Layer 1</title>
  <path fill="#ff3ff9" id="svg_1" d="m1.129413,46.152941l10.85,-30.35l19.65,19.45l-30.5,10.9zm26.7,-20l-2.25,-2.25l11.35,-11.35q1.8,-1.8 4.625,-1.825q2.825,-0.025 4.675,1.775l0.85,0.85l-2.3,2.25l-0.95,-0.95q-0.95,-0.95 -2.225,-0.975q-1.275,-0.025 -2.225,0.975l-11.55,11.5zm-9.1,-8.85l-2.25,-2.3l1.25,-1.3q1.2,-1.15 1.125,-2.6q-0.075,-1.45 -1.125,-2.5l-1.4,-1.4l2.3,-2.25l1.3,1.3q1.95,2 1.925,4.95q-0.025,2.95 -1.975,4.95l-1.15,1.15zm4.65,4.4l-2.3,-2.25l7.15,-7.15q0.95,-0.95 0.925,-2.425q-0.025,-1.475 -0.975,-2.425l-3.05,-3.05l2.3,-2.3l3.15,3.15q1.75,1.85 1.8,4.625q0.05,2.775 -1.75,4.575l-7.25,7.25zm9.05,9.1l-2.3,-2.3l2.15,-2.1q2,-2 4.775,-2.05q2.775,-0.05 4.775,1.95l2.55,2.55l-2.3,2.3l-2.6,-2.6q-1.15,-1.15 -2.4,-1.15t-2.4,1.15l-2.25,2.25z"/>
 </g>
</svg>